<?xml version="1.0" encoding="UTF-8"?>
<svg width="273px" height="77px" viewBox="0 0 273 77" version="1.1" xmlns="http://www.w3.org/2000/svg" xmlns:xlink="http://www.w3.org/1999/xlink">
    <!-- Generator: Sketch 44.1 (41455) - http://www.bohemiancoding.com/sketch -->
    <title>bc_logo</title>
    <desc>Created with Sketch.</desc>
    <defs></defs>
    <g id="Page-1" stroke="none" stroke-width="1" fill="none" fill-rule="evenodd">
        <path d="M7.35406361,1.28583781e-14 C8.08010844,1.22494173e-14 31.4528059,4.4722381e-16 35.6660183,1.25161606e-14 C42.298799,3.151606e-14 48.6486729,2.47221886 48.6486729,12.7336847 C48.6486729,19.5746619 45.9289656,23.6234291 40.4895508,24.8799863 C54.799778,28.5737739 61.6420566,37.1193283 61.0163865,50.5166494 C60.0778814,70.6126311 41.7233858,76.6332941 29.207725,76.5920722 C16.6920641,76.5508502 0.352250352,70.6566765 0.0049695633,52.4924795 C-0.342311226,34.3282825 17.6001469,29.7396586 26.0833272,29.7396586 C34.5665075,29.7396586 45.5711477,31.8126768 45.9596467,45.1606197 C45.8060526,53.3244736 41.5398077,54.2548589 38.5802977,54.2813991 C35.6207878,54.3079392 29.8051609,51.3093479 29.5064429,46.0223278 C29.207725,40.7353077 33.6269436,38.6289422 33.6269436,36.1036497 C33.6269436,33.5783571 33.9711527,32.6506057 26.9657614,32.6506057 C16.8659425,33.3568058 11.2496377,40.0779452 10.8471293,52.0441202 C10.444621,64.0102953 16.1138275,71.1344931 22.6607762,73.0611018 C29.207725,74.9877105 35.9489251,74.0766532 42.298799,69.0349034 C48.6486729,63.9931536 49.3749126,56.1035945 49.3749126,48.2234669 C49.3749126,40.3433393 48.1074582,27.5175759 27.7898029,26.319931 C17.7025101,26.319931 12.1891217,26.9770724 11.2496377,28.2913551 C11.3166469,16.7806835 11.3501515,9.58822641 11.3501515,6.71398379 C11.3501515,4.4074268 10.0165148,2.9399385 7.34924126,2.31151886 C7.36976156,1.518996 7.34214999,0.909579237 7.35406361,1.28583781e-14 Z M23.4730866,2.90963098 L23.894441,24.3903407 C31.8022296,25.010833 35.7561239,21.5262847 35.7561239,13.9366956 C35.7561239,6.34710646 31.6617781,2.67141827 23.4730866,2.90963098 Z" id="Combined-Shape" fill="#F6A623"></path>
        <g id="text" transform="translate(84.000000, 8.000000)" fill="#FFFFFF">
            <path d="M1,0.72 L12.04,0.72 C13.106672,0.72 14.1599948,0.8466654 15.2,1.1 C16.2400052,1.3533346 17.1666626,1.7666638 17.98,2.34 C18.7933374,2.9133362 19.4533308,3.6533288 19.96,4.56 C20.4666692,5.4666712 20.72,6.5599936 20.72,7.84 C20.72,9.440008 20.2666712,10.7599948 19.36,11.8 C18.4533288,12.8400052 17.266674,13.5866644 15.8,14.04 L15.8,14.12 C16.6800044,14.2266672 17.4999962,14.4733314 18.26,14.86 C19.0200038,15.2466686 19.666664,15.739997 20.2,16.34 C20.733336,16.940003 21.1533318,17.6333294 21.46,18.42 C21.7666682,19.2066706 21.92,20.0533288 21.92,20.96 C21.92,22.5066744 21.6133364,23.7933282 21,24.82 C20.3866636,25.8466718 19.580005,26.6733302 18.58,27.3 C17.579995,27.9266698 16.4333398,28.373332 15.14,28.64 C13.8466602,28.906668 12.53334,29.04 11.2,29.04 L1,29.04 L1,0.72 Z M6.04,12.24 L10.64,12.24 C12.3200084,12.24 13.5799958,11.9133366 14.42,11.26 C15.2600042,10.6066634 15.68,9.746672 15.68,8.68 C15.68,7.4533272 15.246671,6.540003 14.38,5.94 C13.513329,5.339997 12.1200096,5.04 10.2,5.04 L6.04,5.04 L6.04,12.24 Z M6.04,24.72 L10.68,24.72 C11.3200032,24.72 12.006663,24.6800004 12.74,24.6 C13.473337,24.5199996 14.1466636,24.3333348 14.76,24.04 C15.3733364,23.7466652 15.879998,23.3266694 16.28,22.78 C16.680002,22.2333306 16.88,21.493338 16.88,20.56 C16.88,19.0666592 16.3933382,18.0266696 15.42,17.44 C14.4466618,16.8533304 12.9333436,16.56 10.88,16.56 L6.04,16.56 L6.04,24.72 Z M44.08,0.72 L48.44,0.72 L60.64,29.04 L54.88,29.04 L52.24,22.56 L39.96,22.56 L37.4,29.04 L31.76,29.04 L44.08,0.72 Z M50.48,18.24 L46.12,6.72 L41.68,18.24 L50.48,18.24 Z M71.8,0.72 L81.64,0.72 C83.0000068,0.72 84.313327,0.8466654 85.58,1.1 C86.846673,1.3533346 87.9733284,1.7866636 88.96,2.4 C89.9466716,3.0133364 90.7333304,3.8399948 91.32,4.88 C91.9066696,5.9200052 92.2,7.239992 92.2,8.84 C92.2,10.8933436 91.633339,12.6133264 90.5,14 C89.366661,15.3866736 87.7466772,16.2266652 85.64,16.52 L93.16,29.04 L87.08,29.04 L80.52,17.04 L76.84,17.04 L76.84,29.04 L71.8,29.04 L71.8,0.72 Z M80.76,12.72 C81.4800036,12.72 82.1999964,12.686667 82.92,12.62 C83.6400036,12.553333 84.299997,12.3933346 84.9,12.14 C85.500003,11.8866654 85.9866648,11.5000026 86.36,10.98 C86.7333352,10.4599974 86.92,9.733338 86.92,8.8 C86.92,7.9733292 86.7466684,7.3066692 86.4,6.8 C86.0533316,6.2933308 85.6000028,5.9133346 85.04,5.66 C84.4799972,5.4066654 83.8600034,5.2400004 83.18,5.16 C82.4999966,5.0799996 81.8400032,5.04 81.2,5.04 L76.84,5.04 L76.84,12.72 L80.76,12.72 Z M105,0.72 L110.04,0.72 L110.04,24.48 L122.08,24.48 L122.08,29.04 L105,29.04 L105,0.72 Z M142.92,0.72 L147.28,0.72 L159.48,29.04 L153.72,29.04 L151.08,22.56 L138.8,22.56 L136.24,29.04 L130.6,29.04 L142.92,0.72 Z M149.32,18.24 L144.96,6.72 L140.52,18.24 L149.32,18.24 Z M184.52,6.8 C183.986664,6.0266628 183.273338,5.4600018 182.38,5.1 C181.486662,4.7399982 180.546672,4.56 179.56,4.56 C178.97333,4.56 178.406669,4.626666 177.86,4.76 C177.313331,4.893334 176.820002,5.1066652 176.38,5.4 C175.939998,5.6933348 175.586668,6.073331 175.32,6.54 C175.053332,7.006669 174.92,7.5599968 174.92,8.2 C174.92,9.1600048 175.25333,9.8933308 175.92,10.4 C176.58667,10.9066692 177.413328,11.3466648 178.4,11.72 C179.386672,12.0933352 180.466661,12.4533316 181.64,12.8 C182.813339,13.1466684 183.893328,13.6266636 184.88,14.24 C185.866672,14.8533364 186.69333,15.6666616 187.36,16.68 C188.02667,17.6933384 188.36,19.0399916 188.36,20.72 C188.36,22.2400076 188.080003,23.566661 187.52,24.7 C186.959997,25.833339 186.206671,26.7733296 185.26,27.52 C184.313329,28.2666704 183.21334,28.8266648 181.96,29.2 C180.70666,29.5733352 179.386674,29.76 178,29.76 C176.239991,29.76 174.546675,29.4666696 172.92,28.88 C171.293325,28.2933304 169.893339,27.3066736 168.72,25.92 L172.52,22.24 C173.133336,23.173338 173.939995,23.8999974 174.94,24.42 C175.940005,24.9400026 176.999994,25.2 178.12,25.2 C178.70667,25.2 179.29333,25.1200008 179.88,24.96 C180.46667,24.7999992 180.999998,24.5600016 181.48,24.24 C181.960002,23.9199984 182.346665,23.5133358 182.64,23.02 C182.933335,22.5266642 183.08,21.9600032 183.08,21.32 C183.08,20.2799948 182.74667,19.4800028 182.08,18.92 C181.41333,18.3599972 180.586672,17.8866686 179.6,17.5 C178.613328,17.1133314 177.533339,16.7466684 176.36,16.4 C175.186661,16.0533316 174.106672,15.580003 173.12,14.98 C172.133328,14.379997 171.30667,13.580005 170.64,12.58 C169.97333,11.579995 169.64,10.2400084 169.64,8.56 C169.64,7.093326 169.939997,5.826672 170.54,4.76 C171.140003,3.693328 171.926662,2.8066702 172.9,2.1 C173.873338,1.3933298 174.98666,0.8666684 176.24,0.52 C177.49334,0.1733316 178.773327,0 180.08,0 C181.573341,0 183.019993,0.2266644 184.42,0.68 C185.820007,1.1333356 187.079994,1.8799948 188.2,2.92 L184.52,6.8 Z" id="BARLAS"></path>
            <path d="M11.1476684,43.4099741 C10.7417942,42.8823376 10.2276945,42.4764695 9.60535406,42.1923575 C8.98301358,41.9082456 8.34038904,41.7661917 7.67746114,41.7661917 C6.86571269,41.7661917 6.13176782,41.9183923 5.47560449,42.2227979 C4.81944116,42.5272036 4.25799024,42.9432184 3.79123489,43.4708549 C3.32447953,43.9984914 2.96258044,44.6174403 2.70552677,45.3277202 C2.4484731,46.0380001 2.31994819,46.7990028 2.31994819,47.6107513 C2.31994819,48.3683832 2.44170863,49.0854169 2.68523316,49.7618739 C2.92875769,50.438331 3.28051008,51.0336042 3.74050086,51.5477116 C4.20049165,52.0618189 4.76194257,52.4676871 5.42487047,52.7653282 C6.08779836,53.0629692 6.83865441,53.2117876 7.67746114,53.2117876 C8.50273873,53.2117876 9.2265369,53.0426758 9.84887737,52.7044473 C10.4712178,52.3662188 10.9988464,51.892706 11.4317789,51.2838946 L13.0755613,52.5218048 C12.9673282,52.6706254 12.7779231,52.8837062 12.5073402,53.1610535 C12.2367574,53.4384009 11.8782406,53.7157442 11.4317789,53.9930915 C10.9853173,54.2704389 10.447542,54.5139598 9.81843696,54.7236615 C9.18933191,54.9333632 8.46215151,55.0382124 7.63687392,55.0382124 C6.5004261,55.0382124 5.47560906,54.8217494 4.56239206,54.3888169 C3.64917505,53.9558844 2.87126113,53.387669 2.22862694,52.6841537 C1.58599276,51.9806384 1.09556876,51.1858133 0.757340242,50.2996546 C0.419111723,49.4134959 0.25,48.5172037 0.25,47.6107513 C0.25,46.5013618 0.432640661,45.4765447 0.797927461,44.5362694 C1.16321426,43.5959941 1.67393166,42.7842579 2.33009499,42.1010363 C2.98625832,41.4178147 3.77431895,40.8868039 4.69430052,40.5079879 C5.61428209,40.129172 6.62895243,39.9397668 7.73834197,39.9397668 C8.68538182,39.9397668 9.6154963,40.1224075 10.5287133,40.4876943 C11.4419303,40.8529811 12.1894041,41.414432 12.7711572,42.1720639 L11.1476684,43.4099741 Z M29.1278066,40.3050518 L34.1809154,40.3050518 C35.1008969,40.3050518 35.8585175,40.4301945 36.4537997,40.6804836 C37.0490818,40.9307727 37.5192124,41.2487027 37.8642055,41.6342832 C38.2091986,42.0198638 38.4493373,42.4527898 38.5846287,42.9330743 C38.7199201,43.4133588 38.7875648,43.8767249 38.7875648,44.3231865 C38.7875648,44.7831773 38.7063911,45.22625 38.5440415,45.652418 C38.3816918,46.0785859 38.1483176,46.4641606 37.8439119,46.8091537 C37.5395062,47.1541468 37.1674605,47.445019 36.7277634,47.6817789 C36.2880663,47.9185389 35.7976423,48.063975 35.2564767,48.1180915 L39.3354922,54.6729275 L36.9002591,54.6729275 L33.2474093,48.3413212 L31.0759931,48.3413212 L31.0759931,54.6729275 L29.1278066,54.6729275 L29.1278066,40.3050518 Z M31.0759931,46.636658 L33.6329879,46.636658 C34.0118039,46.636658 34.3872319,46.6062179 34.7592832,46.5453368 C35.1313346,46.4844557 35.4627936,46.3728419 35.7536701,46.2104922 C36.0445466,46.0481425 36.2779208,45.8147684 36.4537997,45.5103627 C36.6296785,45.205957 36.7176166,44.8102356 36.7176166,44.3231865 C36.7176166,43.8361375 36.6296785,43.440416 36.4537997,43.1360104 C36.2779208,42.8316047 36.0445466,42.5982305 35.7536701,42.4358808 C35.4627936,42.2735311 35.1313346,42.1619174 34.7592832,42.1010363 C34.3872319,42.0401551 34.0118039,42.009715 33.6329879,42.009715 L31.0759931,42.009715 L31.0759931,46.636658 Z M55.2253886,40.3050518 L64.4995682,40.3050518 L64.4995682,42.1314767 L57.1735751,42.1314767 L57.1735751,46.4134283 L63.992228,46.4134283 L63.992228,48.2398532 L57.1735751,48.2398532 L57.1735751,52.8465026 L64.8648532,52.8465026 L64.8648532,54.6729275 L55.2253886,54.6729275 L55.2253886,40.3050518 Z M85.828152,40.3050518 L87.593696,40.3050518 L93.7426598,54.6729275 L91.4697755,54.6729275 L90.0289292,51.1215458 L83.1899827,51.1215458 L81.7694301,54.6729275 L79.4965458,54.6729275 L85.828152,40.3050518 Z M89.3186528,49.4168826 L86.6398964,42.8214594 L86.5993092,42.8214594 L83.8799655,49.4168826 L89.3186528,49.4168826 Z M110.444301,42.1314767 L105.817358,42.1314767 L105.817358,40.3050518 L117.01943,40.3050518 L117.01943,42.1314767 L112.392487,42.1314767 L112.392487,54.6729275 L110.444301,54.6729275 L110.444301,42.1314767 Z M132.787565,40.3050518 L134.735751,40.3050518 L134.735751,54.6729275 L132.787565,54.6729275 L132.787565,40.3050518 Z M150.158895,40.3050518 L152.411485,40.3050518 L156.632556,51.994171 L156.673143,51.994171 L161.056563,40.3050518 L163.187392,40.3050518 L157.525475,54.6729275 L155.69905,54.6729275 L150.158895,40.3050518 Z M178.610535,40.3050518 L187.884715,40.3050518 L187.884715,42.1314767 L180.558722,42.1314767 L180.558722,46.4134283 L187.377375,46.4134283 L187.377375,48.2398532 L180.558722,48.2398532 L180.558722,52.8465026 L188.25,52.8465026 L188.25,54.6729275 L178.610535,54.6729275 L178.610535,40.3050518 Z" id="CREATIVE"></path>
        </g>
    </g>
</svg>