<?xml version="1.0" encoding="UTF-8"?>
<svg width="235px" height="70px" viewBox="0 0 235 70" version="1.1" xmlns="http://www.w3.org/2000/svg" xmlns:xlink="http://www.w3.org/1999/xlink">
    <!-- Generator: Sketch 44.1 (41455) - http://www.bohemiancoding.com/sketch -->
    <title>logo</title>
    <desc>Created with Sketch.</desc>
    <defs></defs>
    <g id="Page-1" stroke="none" stroke-width="1" fill="none" fill-rule="evenodd">
        <g id="Group">
            <g id="Shape">
                <path d="M11.829,0.804 L58.138,0.804 C64.433,0.804 69.543,5.915 69.543,12.209 L69.543,58.518 C69.543,64.813 64.433,69.923 58.138,69.923 L11.829,69.923 C5.535,69.923 0.424,64.813 0.424,58.518 L0.424,12.209 C0.424,5.915 5.535,0.804 11.829,0.804 Z" fill="#4A86E8" fill-rule="nonzero"></path>
                <path d="M68.956,8.591 L42.115,35.433 L68.921,62.239 C67.377,66.709 63.13,69.923 58.138,69.923 L52.605,69.923 L20.876,38.194 C20.191,37.509 19.822,36.626 19.773,35.729 C19.76,35.532 19.757,35.334 19.773,35.136 C19.822,34.239 20.191,33.357 20.876,32.671 L52.743,0.804 L58.138,0.804 C63.168,0.804 67.442,4.068 68.956,8.591 Z" fill="#00FFFF"></path>
            </g>
            <path d="M132.505,53.665 L117.812,35.368 L109.218,43.269 L109.218,53.665 L104.297,53.665 L104.297,17.255 L109.218,17.255 L109.218,37.101 L130.981,17.209 L137.08,17.209 L121.486,32.11 L138.535,53.665 L132.505,53.665 Z M148.664,24.348 L148.664,24.348 C149.819333,21.8993333 151.540667,20.051 153.828,18.803 L153.828,18.803 L153.828,18.803 C156.114667,17.5556667 158.944667,16.932 162.318,16.932 L162.318,16.932 L162.318,21.714 L161.14,21.645 L161.14,21.645 C157.304667,21.645 154.301333,22.8233333 152.13,25.18 L152.13,25.18 L152.13,25.18 C149.958,27.536 148.872,30.8396667 148.872,35.091 L148.872,35.091 L148.872,53.665 L143.951,53.665 L143.951,17.209 L148.664,17.209 L148.664,24.348 Z M199.556,35.437 L199.487,36.962 L168.991,36.962 L168.991,36.962 C169.268333,40.7506667 170.724,43.8116667 173.358,46.145 L173.358,46.145 L173.358,46.145 C175.991333,48.4783333 179.318,49.645 183.338,49.645 L183.338,49.645 L183.338,49.645 C185.602,49.645 187.681333,49.241 189.576,48.433 L189.576,48.433 L189.576,48.433 C191.47,47.6243333 193.110333,46.4343333 194.497,44.863 L194.497,44.863 L197.269,48.051 L197.269,48.051 C195.651667,49.9916667 193.630333,51.4703333 191.205,52.487 L191.205,52.487 L191.205,52.487 C188.779,53.5036667 186.110333,54.012 183.199,54.012 L183.199,54.012 L183.199,54.012 C179.457,54.012 176.142,53.215 173.254,51.621 L173.254,51.621 L173.254,51.621 C170.366,50.027 168.113333,47.8206667 166.496,45.002 L166.496,45.002 L166.496,45.002 C164.878667,42.1833333 164.07,38.995 164.07,35.437 L164.07,35.437 L164.07,35.437 C164.07,31.8796667 164.844,28.6916667 166.392,25.873 L166.392,25.873 L166.392,25.873 C167.94,23.0543333 170.065667,20.8593333 172.769,19.288 L172.769,19.288 L172.769,19.288 C175.471667,17.7173333 178.509667,16.932 181.883,16.932 L181.883,16.932 L181.883,16.932 C185.255667,16.932 188.282,17.7173333 190.962,19.288 L190.962,19.288 L190.962,19.288 C193.642,20.8593333 195.744333,23.0426667 197.269,25.838 L197.269,25.838 L197.269,25.838 C198.793667,28.6333333 199.556,31.833 199.556,35.437 L199.556,35.437 Z M181.883,21.16 L181.883,21.16 C178.371,21.16 175.425333,22.2803333 173.046,24.521 L173.046,24.521 L173.046,24.521 C170.666,26.7623333 169.314333,29.685 168.991,33.289 L168.991,33.289 L194.843,33.289 L194.843,33.289 C194.519667,29.685 193.168333,26.7623333 190.789,24.521 L190.789,24.521 L190.789,24.521 C188.409,22.2803333 185.440333,21.16 181.883,21.16 L181.883,21.16 Z M219.359,16.932 L219.359,16.932 C224.117667,16.932 227.767667,18.1216667 230.309,20.501 L230.309,20.501 L230.309,20.501 C232.850333,22.881 234.121,26.4043333 234.121,31.071 L234.121,31.071 L234.121,53.665 L229.408,53.665 L229.408,47.982 L229.408,47.982 C228.299333,49.8766667 226.670667,51.3553333 224.522,52.418 L224.522,52.418 L224.522,52.418 C222.373333,53.4806667 219.820333,54.012 216.863,54.012 L216.863,54.012 L216.863,54.012 C212.797,54.012 209.562667,53.0416667 207.16,51.101 L207.16,51.101 L207.16,51.101 C204.757333,49.1603333 203.556,46.596 203.556,43.408 L203.556,43.408 L203.556,43.408 C203.556,40.312 204.676667,37.8166667 206.918,35.922 L206.918,35.922 L206.918,35.922 C209.158667,34.028 212.728,33.081 217.626,33.081 L217.626,33.081 L229.2,33.081 L229.2,30.863 L229.2,30.863 C229.2,27.721 228.322333,25.33 226.567,23.69 L226.567,23.69 L226.567,23.69 C224.811,22.0493333 222.246333,21.229 218.873,21.229 L218.873,21.229 L218.873,21.229 C216.563,21.229 214.345333,21.6103333 212.22,22.373 L212.22,22.373 L212.22,22.373 C210.094667,23.135 208.269333,24.186 206.744,25.526 L206.744,25.526 L204.527,21.853 L204.527,21.853 C206.375,20.2816667 208.592667,19.0686667 211.18,18.214 L211.18,18.214 L211.18,18.214 C213.767333,17.3593333 216.493667,16.932 219.359,16.932 L219.359,16.932 Z M217.626,50.131 L217.626,50.131 C220.398,50.131 222.777667,49.4956667 224.765,48.225 L224.765,48.225 L224.765,48.225 C226.751667,46.9543333 228.23,45.1176667 229.2,42.715 L229.2,42.715 L229.2,36.754 L217.764,36.754 L217.764,36.754 C211.526667,36.754 208.408,38.9256667 208.408,43.269 L208.408,43.269 L208.408,43.269 C208.408,45.3943333 209.216667,47.0693333 210.834,48.294 L210.834,48.294 L210.834,48.294 C212.450667,49.5186667 214.714667,50.131 217.626,50.131 L217.626,50.131 Z" id="Shape" fill="#FFFFFF"></path>
        </g>
    </g>
</svg>